<svg width="31.451172" height="32.000000" viewBox="0 0 31.4512 32" fill="none" xmlns="http://www.w3.org/2000/svg" xmlns:xlink="http://www.w3.org/1999/xlink">
	<desc>
			Created with Pixso.
	</desc>
	<defs>
		<clipPath id="clip128_238">
			<rect id="twitter-brands 1" rx="-0.500000" width="14.892374" height="15.000000" transform="translate(8.447266 8.500000)" fill="white" fill-opacity="0"/>
		</clipPath>
	</defs>
	<path id="Rectangle 14" d="M0 0L31.45 0L31.45 32L0 32L0 0Z" fill="#FFFFFF" fill-opacity="1.000000" fill-rule="evenodd"/>
	<rect id="twitter-brands 1" rx="-0.500000" width="14.892374" height="15.000000" transform="translate(8.447266 8.500000)" fill="#FFFFFF" fill-opacity="0"/>
	<g clip-path="url(#clip128_238)">
		<path id="Vector" d="M22.2 12.74C22.21 12.88 22.21 13.02 22.21 13.16C22.21 17.5 18.93 22.49 12.94 22.49C11.1 22.49 9.38 21.95 7.94 21.02C8.2 21.05 8.46 21.06 8.73 21.06C10.25 21.06 11.65 20.54 12.77 19.66C11.34 19.63 10.14 18.68 9.73 17.39C9.93 17.41 10.13 17.44 10.34 17.44C10.64 17.44 10.93 17.4 11.2 17.33C9.71 17.02 8.59 15.7 8.59 14.11L8.59 14.07C9.02 14.31 9.53 14.46 10.06 14.48C9.18 13.89 8.61 12.89 8.61 11.75C8.61 11.14 8.77 10.58 9.05 10.1C10.66 12.08 13.07 13.39 15.77 13.53C15.72 13.28 15.69 13.03 15.69 12.78C15.69 10.97 17.14 9.5 18.94 9.5C19.88 9.5 20.73 9.89 21.32 10.53C22.06 10.39 22.77 10.12 23.39 9.74C23.15 10.5 22.63 11.14 21.96 11.55C22.61 11.48 23.25 11.29 23.83 11.04C23.39 11.69 22.84 12.27 22.2 12.74Z" fill="#000000" fill-opacity="1.000000" fill-rule="nonzero"/>
	</g>
</svg>
