<svg width="31.451172" height="32.000000" viewBox="0 0 31.4512 32" fill="none" xmlns="http://www.w3.org/2000/svg" xmlns:xlink="http://www.w3.org/1999/xlink">
	<desc>
			Created with Pixso.
	</desc>
	<defs>
		<clipPath id="clip128_242">
			<rect id="pinterest-p-brands 1" rx="-0.500000" width="10.919281" height="15.000000" transform="translate(10.433594 8.500000)" fill="white" fill-opacity="0"/>
		</clipPath>
	</defs>
	<path id="Rectangle 14" d="M0 0L31.45 0L31.45 32L0 32L0 0Z" fill="#FFFFFF" fill-opacity="1.000000" fill-rule="evenodd"/>
	<rect id="pinterest-p-brands 1" rx="-0.500000" width="10.919281" height="15.000000" transform="translate(10.433594 8.500000)" fill="#FFFFFF" fill-opacity="0"/>
	<g clip-path="url(#clip128_242)">
		<path id="Vector" d="M16.26 8.2C13.08 8.2 9.93 10.33 9.93 13.8C9.93 16 11.16 17.25 11.9 17.25C12.21 17.25 12.39 16.38 12.39 16.14C12.39 15.85 11.65 15.23 11.65 14.02C11.65 11.51 13.55 9.73 16.01 9.73C18.12 9.73 19.69 10.94 19.69 13.16C19.69 14.82 19.03 17.93 16.88 17.93C16.11 17.93 15.45 17.37 15.45 16.56C15.45 15.38 16.27 14.24 16.27 13.02C16.27 10.95 13.36 11.32 13.36 13.82C13.36 14.35 13.42 14.93 13.65 15.41C13.23 17.26 12.35 20.03 12.35 21.94C12.35 22.53 12.43 23.11 12.49 23.7C12.59 23.82 12.54 23.81 12.7 23.75C14.27 21.59 14.21 21.17 14.92 18.35C15.3 19.08 16.29 19.48 17.07 19.48C20.37 19.48 21.85 16.24 21.85 13.33C21.85 10.22 19.18 8.2 16.26 8.2Z" fill="#000000" fill-opacity="1.000000" fill-rule="nonzero"/>
	</g>
</svg>
